<?xml version="1.0" standalone="no"?>
<!DOCTYPE svg PUBLIC "-//W3C//DTD SVG 20010904//EN"
 "http://www.w3.org/TR/2001/REC-SVG-20010904/DTD/svg10.dtd">
<svg version="1.0" xmlns="http://www.w3.org/2000/svg"
 width="400.000000pt" height="400.000000pt" viewBox="0 0 400.000000 400.000000"
 preserveAspectRatio="xMidYMid meet">
<metadata>
Created by potrace 1.11, written by Peter Selinger 2001-2013
</metadata>
<g transform="translate(0.000000,400.000000) scale(0.100000,-0.100000)"
fill="#000000" stroke="none">
<path d="M2850 2750 c-69 -6 -103 -20 -133 -54 -33 -37 -45 -70 -43 -116 2
-57 31 -108 79 -139 34 -22 37 -28 37 -70 l0 -45 43 41 c40 40 45 42 112 44
39 1 84 7 100 13 129 46 159 202 56 289 -43 36 -121 47 -251 37z m80 -155 c52
-47 63 -54 80 -45 24 13 27 55 4 64 -8 3 -26 3 -39 0 -33 -8 -41 14 -10 28 51
23 114 -26 96 -76 -12 -31 -55 -59 -80 -51 -12 3 -44 29 -73 56 -53 51 -81 60
-96 33 -20 -36 16 -74 49 -53 15 9 29 3 29 -12 0 -14 -45 -29 -69 -22 -20 5
-51 49 -51 71 0 5 9 21 21 36 34 43 69 35 139 -29z"/>
<path d="M2413 2630 c-28 -12 -32 -38 -32 -210 1 -216 3 -200 -26 -200 -28 0
-29 -4 -14 -48 6 -17 20 -32 32 -36 12 -3 165 -6 340 -6 304 0 318 1 337 20
11 11 20 33 20 50 0 27 -3 30 -25 26 -25 -5 -25 -4 -25 70 l0 74 -35 0 -34 0
-3 -72 -3 -73 -85 0 c-57 0 -88 -4 -93 -12 -10 -16 -101 -17 -129 -2 -11 6
-58 11 -104 11 l-83 1 2 171 2 171 83 2 c46 0 85 3 87 5 2 1 5 17 7 33 l3 30
-100 2 c-55 1 -110 -2 -122 -7z"/>
<path d="M670 1818 c-119 -259 -162 -352 -167 -360 -2 -5 9 -8 26 -8 28 0 33
6 65 75 l35 76 156 -3 157 -3 30 -72 c28 -67 33 -73 59 -73 16 0 29 4 29 9 0
5 -26 65 -58 132 -33 68 -85 183 -117 254 -33 72 -63 136 -68 143 -5 6 -22 12
-36 12 -25 0 -33 -12 -111 -182z m150 40 c18 -40 46 -99 62 -132 15 -32 28
-62 28 -67 0 -5 -58 -9 -130 -9 l-129 0 18 43 c10 23 37 81 60 128 22 47 41
91 41 98 0 29 19 5 50 -61z"/>
<path d="M1290 1984 c-71 -26 -127 -73 -157 -134 -37 -72 -39 -183 -6 -246 28
-53 75 -98 132 -126 66 -32 207 -32 268 0 211 111 207 398 -7 495 -60 27 -170
33 -230 11z m226 -67 c165 -104 135 -348 -50 -407 -95 -31 -222 12 -273 92
-27 44 -43 149 -28 185 4 10 9 23 11 30 6 30 60 84 107 108 70 36 170 32 233
-8z"/>
<path d="M2026 1737 c1 -144 2 -268 3 -275 1 -8 11 -12 29 -10 l27 3 0 128 -1
127 173 0 c158 0 173 -2 174 -17 0 -10 0 -69 0 -130 l0 -113 30 0 29 0 0 276
0 275 -27 -3 c-28 -3 -28 -4 -30 -83 0 -44 -2 -97 -2 -118 l-1 -37 -172 2
-173 3 0 118 0 117 -30 0 -30 0 1 -263z"/>
<path d="M3168 1989 c-113 -32 -151 -169 -64 -233 30 -23 56 -32 194 -72 74
-21 105 -51 98 -97 -10 -63 -70 -93 -172 -84 -42 3 -78 13 -110 31 -44 25 -47
25 -60 9 -12 -16 -10 -21 14 -41 39 -32 96 -47 187 -47 62 0 89 5 120 21 50
26 84 82 79 131 -7 75 -53 108 -200 144 -105 27 -145 58 -139 110 5 39 21 58
62 76 45 18 118 16 183 -7 30 -10 55 -18 56 -17 1 1 4 12 8 23 6 18 0 24 -36
39 -52 21 -169 28 -220 14z"/>
<path d="M2675 1663 l93 -208 -19 -37 c-33 -64 -83 -84 -140 -54 -23 12 -27
11 -38 -6 -16 -26 7 -44 66 -54 63 -9 103 9 141 64 17 26 32 50 32 54 0 4 13
35 29 70 16 35 50 110 76 168 26 58 58 129 71 158 l24 52 -28 0 c-26 0 -32 -9
-107 -176 -77 -173 -79 -176 -91 -148 -7 16 -25 56 -40 89 -15 33 -44 98 -64
145 -34 78 -40 85 -68 88 l-31 3 94 -208z"/>
<path d="M1360 880 c-9 -6 -10 -10 -3 -10 6 0 15 5 18 10 8 12 4 12 -15 0z"/>
<path d="M1590 886 c0 -2 7 -7 16 -10 8 -3 12 -2 9 4 -6 10 -25 14 -25 6z"/>
<path d="M2056 878 c3 -4 11 -5 19 -1 21 7 19 12 -4 10 -11 0 -18 -5 -15 -9z"/>
<path d="M2868 883 c6 -2 18 -2 25 0 6 3 1 5 -13 5 -14 0 -19 -2 -12 -5z"/>
<path d="M630 860 c-9 -6 -10 -10 -3 -10 6 0 15 5 18 10 8 12 4 12 -15 0z"/>
<path d="M2188 853 c6 -2 18 -2 25 0 6 3 1 5 -13 5 -14 0 -19 -2 -12 -5z"/>
<path d="M2618 853 c7 -3 16 -2 19 1 4 3 -2 6 -13 5 -11 0 -14 -3 -6 -6z"/>
<path d="M286 835 c-11 -8 -15 -15 -9 -15 6 0 16 7 23 15 16 19 11 19 -14 0z"/>
<path d="M2527 839 c7 -7 15 -10 18 -7 3 3 -2 9 -12 12 -14 6 -15 5 -6 -5z"/>
<path d="M548 823 c7 -3 16 -2 19 1 4 3 -2 6 -13 5 -11 0 -14 -3 -6 -6z"/>
<path d="M2188 823 c7 -3 16 -2 19 1 4 3 -2 6 -13 5 -11 0 -14 -3 -6 -6z"/>
<path d="M2438 823 c7 -3 16 -2 19 1 4 3 -2 6 -13 5 -11 0 -14 -3 -6 -6z"/>
</g>
</svg>
